<svg width="361" height="361" viewBox="0 0 361 361" fill="none" xmlns="http://www.w3.org/2000/svg">
<mask id="mask0_662_2033" style="mask-type:alpha" maskUnits="userSpaceOnUse" x="0" y="0" width="361" height="361">
<circle cx="180.5" cy="180.5" r="178.5" fill="white" stroke="#61008F" stroke-width="4"/>
</mask>
<g mask="url(#mask0_662_2033)">
<path d="M281.404 293.463C280.581 294.041 279.639 294.623 278.817 295.202C277.874 295.784 277.052 296.362 276.106 296.833C275.281 297.3 274.575 297.765 273.749 298.232C273.632 298.346 273.513 298.35 273.396 298.464C270.686 300.095 267.853 301.618 265.017 303.03C264.192 303.497 263.246 303.968 262.418 304.324C262.418 304.324 262.301 304.438 262.182 304.441C261.236 304.912 260.291 305.382 259.346 305.853C257.455 306.794 255.442 307.627 253.549 308.457C252.604 308.927 251.536 309.29 250.588 309.649C249.639 310.008 248.575 310.482 247.626 310.841C246.678 311.201 245.613 311.674 244.665 312.034C244.665 312.034 244.665 312.034 244.545 312.037C243.597 312.396 242.529 312.758 241.581 313.118C239.446 313.843 237.19 314.571 235.055 315.295C234.343 315.537 233.511 315.782 232.799 316.023C230.544 316.751 228.286 317.368 226.025 317.874C225.193 318.118 224.359 318.252 223.407 318.5C221.266 319.002 219.005 319.508 216.863 320.01C216.388 320.134 216.029 320.143 215.553 320.267C214.838 320.398 214.004 320.531 213.289 320.661C212.215 320.801 211.264 321.049 210.19 321.189C209.715 321.313 209.236 321.326 208.761 321.45C208.166 321.577 207.451 321.707 206.733 321.726C204.825 322 202.797 322.276 200.889 322.549C200.293 322.677 199.576 322.696 198.981 322.823L198.861 322.826C198.026 322.959 197.189 322.982 196.355 323.115C195.52 323.249 194.683 323.271 193.845 323.293C193.367 323.306 192.771 323.433 192.293 323.445C191.336 323.471 190.501 323.604 189.664 323.627C188.468 323.658 187.394 323.798 186.198 323.83C185.001 323.862 183.925 323.89 182.728 323.922C181.891 323.944 181.054 323.966 180.216 323.988C129.714 324.659 83.8459 305.939 50.5881 275.19C50.5881 275.19 50.5851 275.079 50.4655 275.082C46.7969 272.172 49.4825 256.063 63.6893 245.552C81.534 232.271 124.867 223.103 124.867 223.103C124.867 223.103 141.667 220.096 204.556 230.569C241.352 236.722 269.5 246.333 285.796 273.967C289.179 279.669 292.645 288.487 281.404 293.463Z" fill="white"/>
<path d="M204.882 229.335C227.966 233.066 252.614 237.091 271.891 250.724C278.358 255.342 282.731 262.242 286.38 268.939C288.144 272.234 289.91 275.64 291.323 279.278C292.106 281.707 293.256 284.461 292.735 287.37C292.636 288.153 291.945 289.173 291.361 289.746C288.678 292.378 285.728 294.016 282.79 296.098C265.506 307.917 245.5 316.466 224.677 321.25C178.272 331.947 127.593 325.94 85.9546 304.212C72.1131 296.894 59.3041 287.878 48.2452 277.145C47.0135 275.842 46.9545 273.616 46.9161 272.169C46.9473 268.827 47.8188 265.574 48.9354 262.537C51.6236 255.561 55.1493 248.562 61.3629 243.608C65.8321 240.594 70.6721 238.016 75.6435 235.879C91.2696 229.228 107.783 224.447 124.843 222.212C126.276 222.063 126.565 223.949 125.136 224.209C108.829 227.76 92.6829 232.866 77.6579 239.612C72.2227 242.318 66.4198 244.699 62.0997 248.823C58.0247 253.164 55.1726 258.474 52.9216 263.879C51.4519 267.148 50.511 272.296 51.0574 274.843C58.8154 282.991 67.8628 290.102 77.6014 296.192C130.903 328.859 210.516 328.976 265.512 299.118C270.469 296.425 275.297 293.401 279.883 290.273C282.117 288.766 284.477 287.478 286.228 285.761C286.344 285.646 286.228 285.761 286.231 285.872C286.234 285.984 286.117 286.098 286.117 286.098C286.201 284.759 285.675 282.991 285.03 281.226C282.706 274.828 279.056 268.131 275.191 262.331C269.096 253.694 259.019 248.392 248.852 244.207C241.834 241.386 234.475 239.242 226.999 237.213C219.522 235.184 211.936 233.491 204.355 232.022C202.429 231.627 202.959 229.052 204.882 229.335Z" fill="black"/>
<path d="M209.524 256.266C207.186 267.734 192.045 274.636 166.549 264.282C140.052 253.594 128.584 228.099 125.69 220.528C141.388 191.136 130.477 170.761 130.477 170.761C166.661 167.644 198.28 209.951 198.28 209.951L203.178 230.882C203.624 232.663 204.514 234.222 205.85 235.335C208.188 239.455 210.972 248.918 209.524 256.266Z" fill="white"/>
<path d="M125.134 220.862C127.249 217.633 128.585 213.848 129.476 210.174C131.146 202.492 131.702 194.699 131.814 186.905V184.01C131.48 181.116 130.478 178.11 129.364 175.438C127.917 171.875 133.15 169.648 134.82 173.211C135.042 173.656 135.042 174.436 135.042 174.881C135.376 190.022 136.044 209.506 126.47 222.087C125.802 222.755 124.466 221.753 125.134 220.862Z" fill="black"/>
<path d="M199.505 209.729C201.175 210.731 201.731 212.067 201.954 213.403C202.622 216.075 202.399 218.969 203.067 221.753C203.624 224.425 205.294 226.985 205.739 229.769C206.296 232.663 207.966 238.787 208.634 241.793C208.857 242.461 208.411 243.24 207.632 243.352C207.187 243.463 206.853 243.352 206.519 243.129C205.071 241.904 204.403 240.679 203.513 239.121C202.065 236.449 201.063 233.999 200.173 230.993C199.393 228.321 199.727 225.427 199.059 222.643C198.503 219.971 196.944 217.411 196.387 214.627C196.053 213.291 195.942 211.844 196.944 210.174C197.612 209.506 198.725 209.283 199.505 209.729Z" fill="black"/>
<path d="M207.521 239.121C186.256 238.007 168.888 231.327 151.965 201.156C166.216 213.737 183.027 218.524 200.73 220.751L203.068 230.993C203.513 232.775 206.185 238.007 207.521 239.121Z" fill="black"/>
<path d="M206.631 235.002C210.416 242.127 212.643 251.034 210.305 258.939C208.523 264.505 203.402 268.625 197.835 270.183C184.921 273.635 170.002 268.179 158.534 262.056C144.395 254.151 133.929 240.902 127.249 226.429C126.804 225.316 128.363 224.425 129.031 225.538C131.369 230.214 134.041 234.779 137.047 238.898C140.053 243.129 143.504 247.026 147.401 250.477C158.757 260.72 174.121 267.066 189.485 267.066C205.295 266.621 211.307 258.271 207.633 242.906C207.076 240.457 206.185 237.896 204.961 235.781C204.293 234.89 205.963 233.888 206.631 235.002Z" fill="black"/>
<path d="M249.716 101.288C251.72 110.64 247.823 114.871 247.823 139.921C247.823 152.502 246.598 166.864 244.149 180.67C241.588 194.92 234.463 208.392 222.55 218.412C204.514 233.442 185.587 234.11 163.209 216.631C160.091 214.181 149.181 205.943 146.397 203.159C140.163 197.036 139.606 181.226 135.598 175.103C132.814 170.872 131.144 177.664 124.798 170.65C116.003 161.075 105.426 141.814 110.659 107.746C119.12 52.5238 162.875 46.0664 195.273 52.1898C227.671 58.2018 244.372 76.6833 249.716 101.288Z" fill="white"/>
<path d="M130.143 180.336C126.246 173.99 120.791 168.646 117.228 162.078C106.429 142.149 104.202 117.878 109.991 96.0562C122.35 49.2958 167.774 41.2797 208.968 53.9718C231.235 60.8746 247.601 77.686 252.166 100.844C253.836 109.194 250.273 117.21 249.716 125.337C249.16 130.236 248.937 135.135 249.048 140.033C249.605 154.952 249.16 170.094 244.706 184.456C240.141 198.818 232.682 213.069 220.324 222.309C197.055 239.678 169.555 226.986 151.519 208.615C150.963 208.059 151.742 207.168 152.41 207.613C164.211 216.075 176.792 224.091 191.266 225.65C216.539 228.544 234.129 204.941 241.589 183.565C244.817 174.324 246.487 164.638 246.821 154.952C247.155 145.043 246.376 135.135 246.71 125.226C246.821 122.776 246.933 120.216 247.155 117.766C247.489 113.87 248.491 107.412 247.712 103.627C245.374 92.0482 240.253 80.9147 232.014 72.342C212.753 52.4131 176.458 46.7351 150.851 55.9758C120.791 66.9979 112.886 97.1696 111.216 126.117C110.103 143.485 115.224 160.408 128.362 172.32L133.594 177.776C135.71 180.002 131.924 183.008 130.143 180.336Z" fill="black"/>
<path d="M143.281 144.932C143.281 144.932 139.829 128.232 123.574 130.236C109.546 132.017 104.647 165.64 136.489 174.992" fill="white"/>
<path d="M135.042 160.407C132.481 158.96 130.7 156.511 130.589 153.505C130.7 151.278 131.034 148.717 130.477 146.491C130.143 144.375 127.917 143.818 126.247 143.93C124.465 144.264 123.352 146.491 123.018 148.272C123.018 148.383 122.907 148.717 122.907 148.829C122.795 149.385 121.905 149.385 121.682 148.829C120.235 144.486 123.463 139.699 128.139 140.256C134.708 140.701 135.599 147.604 134.374 152.837C133.706 155.063 134.597 157.067 135.821 158.96L136.044 159.294C136.601 159.962 135.71 160.853 135.042 160.407Z" fill="black"/>
<path d="M224.11 133.13C225.78 141.035 228.897 148.383 232.794 155.286C236.245 163.747 227.338 171.763 219.434 171.429C218.543 171.429 218.432 170.205 219.211 169.982C224.221 168.423 228.786 165.083 229.565 159.962C229.899 158.403 229.454 157.067 228.674 155.731C225 148.829 222.774 140.924 223.33 133.13C223.33 132.574 224.11 132.574 224.11 133.13Z" fill="black"/>
<path d="M142.724 145.043C140.163 138.474 134.596 132.24 127.137 132.351C126.469 132.24 125.355 132.462 124.687 132.462C122.795 132.574 121.236 133.242 119.789 134.578C112.663 141.703 113.888 154.284 119.677 162.189C121.681 164.972 124.242 167.421 127.137 169.425C130.031 171.429 133.26 172.988 136.712 174.324C137.491 174.547 137.157 175.771 136.378 175.66C128.918 174.101 121.793 170.427 116.894 164.304C109.323 155.174 107.765 139.922 116.783 131.015C118.787 129.234 121.57 127.898 124.353 127.898C125.244 127.898 126.58 127.675 127.471 127.898C132.147 128.12 136.6 130.458 139.495 134.132C142.056 137.25 143.503 141.035 143.948 144.82C143.948 145.488 142.946 145.711 142.724 145.043Z" fill="black"/>
<path d="M185.298 149.941C182.626 149.829 180.622 147.603 180.844 144.931L180.955 141.813C181.067 139.141 183.294 137.137 185.966 137.36C188.638 137.471 190.642 139.698 190.419 142.37L190.308 145.487C190.196 148.048 187.97 150.052 185.298 149.941Z" fill="black"/>
<path d="M232.169 151.611C229.72 151.5 227.827 149.384 227.939 146.935L228.05 144.04C228.161 141.591 230.277 139.698 232.726 139.81C235.175 139.921 237.068 142.036 236.957 144.486L236.845 147.38C236.734 149.83 234.619 151.722 232.169 151.611Z" fill="black"/>
<path d="M195.318 143.929C191.644 141.479 187.636 139.809 183.182 140.7C181.735 140.923 180.288 141.368 179.397 142.37C179.063 142.815 178.284 142.704 178.284 142.036C178.395 139.809 180.288 138.362 182.069 137.471C185.52 135.69 190.308 136.024 193.425 138.362C194.538 139.03 198.324 143.149 196.32 144.04C195.874 144.263 195.652 144.151 195.318 143.929Z" fill="black"/>
<path d="M227.159 144.485C227.159 139.809 232.949 138.139 236.511 139.809C238.515 140.7 239.963 142.481 240.519 144.596C240.742 145.264 239.74 145.821 239.295 145.264C237.402 143.038 234.173 141.924 231.613 143.26C230.833 143.706 230.722 144.04 230.499 144.485C230.499 146.712 227.271 146.6 227.159 144.485Z" fill="black"/>
<path d="M200.662 125.558C203 126.338 205.338 124.222 204.892 121.662C204.67 120.326 204.113 118.99 203 117.988C199.66 114.982 185.854 112.31 177.504 116.206C170.156 119.769 189.974 121.996 200.662 125.558Z" fill="black"/>
<path d="M233.951 127.34C232.058 128.008 230.054 126.004 230.388 123.666C230.5 122.441 230.945 121.216 231.836 120.326C234.508 117.654 243.637 115.538 249.427 119.658C254.437 123.109 242.635 124.111 233.951 127.34Z" fill="black"/>
<path d="M254.279 88.4315C258.863 83.1988 261.701 76.2961 261.701 68.7253C261.701 52.3591 248.712 39.1104 232.667 39.1104C221.643 39.1104 212.038 45.4564 207.126 54.6972C186.824 47.7944 167.94 47.9058 152.223 53.3612C146.328 44.7884 136.614 39.1104 125.59 39.1104C107.689 39.1104 93.2808 53.9178 93.2808 72.0653C93.2808 84.3121 99.8299 95.1116 109.654 100.79C99.2841 139.979 116.093 166.811 124.716 177.388C133.449 188.076 134.213 196.203 134.213 196.203C138.688 193.643 133.449 182.175 133.558 176.163C106.27 165.475 111.182 134.413 124.498 132.631C138.469 130.85 142.836 143.542 143.6 146.659C146.219 143.542 146.765 129.514 148.511 116.376L149.494 135.415C149.494 135.415 173.616 132.631 200.686 132.409C201.013 127.621 201.777 118.492 201.559 114.15C201.559 114.15 203.851 124.059 204.834 132.409C205.925 132.409 206.907 132.409 207.999 132.409C209.636 132.409 211.383 132.409 213.347 132.52C213.675 128.512 214.33 121.386 214.33 118.158C214.33 118.158 215.64 125.951 216.185 132.631C223.608 132.854 232.231 133.299 239.871 134.301C240.308 131.407 241.508 123.836 241.727 119.271C241.727 119.271 243.582 125.951 242.818 134.747C244.565 134.969 246.311 135.303 247.839 135.637C247.73 136.639 247.075 139.868 247.075 139.868C251.332 140.536 255.807 137.864 255.807 137.864C255.589 137.753 262.356 115.04 254.279 88.4315Z" fill="black"/>
<path d="M111.395 229.305C115.476 235.203 130.989 258.892 133.48 279.85L147.899 283.817C147.899 283.817 136.88 244.204 117.313 225.86C117.313 225.86 114.987 225.008 112.086 226.635C111.158 227.305 110.695 228.354 111.395 229.305Z" fill="black"/>
<path d="M235.162 279.891C235.162 279.891 235.796 253.494 221.809 236.186C221.459 235.71 221.923 235.042 222.62 235.136C223.55 235.324 224.945 235.606 227.155 236.459C230.878 237.879 243 253.001 244.105 277.868C244.105 277.773 236.324 279.888 235.162 279.891Z" fill="black"/>
<path d="M274.846 255.02C268.79 249.794 250.527 242.025 247.39 242.223C247.506 242.413 247.507 242.699 247.624 242.984C252.539 257.361 248.635 276.905 230.863 280.187C212.394 283.567 196.94 284.08 159.862 281.121C132.664 278.994 107.05 259.046 93.9871 239.257C92.704 237.259 91.1885 235.262 89.5572 233.455C88.6262 232.886 86.8833 232.985 85.6071 233.846C82.3585 236.046 78.0584 235.865 78.0634 237.962C78.0634 237.962 53.4425 244.31 44.9499 288.639C40.1296 313.712 33.3516 346.221 33.1458 357.275L297.751 356.638C295.856 341.777 297.556 275.548 274.846 255.02Z" fill="black"/>
<path d="M272.642 256.741C269.149 253.89 264.612 251.71 260.307 249.624C256.351 247.728 251.465 245.643 247.396 244.7L250.061 241.644L250.179 242.216C253.46 253.357 252.794 266.603 243.403 275.773C240.157 278.831 235.398 281.034 230.519 281.712C221.458 283.259 212.047 284.139 202.751 284.161C186.481 284.105 170.442 283.096 154.401 281.324C143.008 279.35 132.422 274.707 123.227 268.916C110.309 260.753 100.405 250.009 91.1981 239.073C89.9162 237.552 88.402 236.126 86.7721 234.891L87.3545 235.462C87.5874 235.652 87.7034 235.556 87.5872 235.556C87.5872 235.556 87.3548 235.557 87.2388 235.652C87.1226 235.653 87.1226 235.653 87.0068 235.844C85.1507 237.182 82.1309 237.856 80.2737 238.718C80.3899 238.718 80.6209 238.146 80.6207 238.051L78.5344 240.342L78.186 240.439L77.7217 240.63C61.8182 247.72 54.1889 264.509 50.0385 278.24C46.0089 293.877 43.6073 309.987 40.3914 325.717C38.5573 336.203 36.2591 346.976 35.7031 357.364L32.6757 354.894L297.746 354.255L294.847 356.93C292.343 330.541 293.492 276.987 272.642 256.741ZM277.05 253.395C299.53 274.781 298.265 328.621 300.772 356.439C300.892 357.773 299.733 359.015 298.106 359.114C297.99 359.305 33.2682 359.657 33.1522 359.752C31.5253 359.756 30.1283 358.711 30.1251 357.377C30.344 351.755 31.2605 346.321 32.0611 340.983C34.6953 324.969 37.9108 309.048 41.0101 293.127C42.9599 282.45 45.6063 271.486 50.8113 261.373C56.0165 251.355 63.7772 240.854 76.3159 235.965C76.5481 235.869 76.7803 235.773 77.1287 235.677L75.0425 237.969C74.9182 234.634 79.332 233.766 82.1187 232.806C83.976 231.944 85.4837 230.702 87.8079 230.696C88.9697 230.598 91.0624 230.974 91.9948 232.115C93.6281 234.779 95.0291 237.444 96.43 240.109C98.7645 244.391 101.796 248.386 105.291 252.094C117.873 265.118 134.867 276.511 155.095 279.798C161.837 280.734 168.81 280.908 175.551 281.368C193.798 282.373 212.16 282.519 229.931 278.855C234.112 278.083 237.71 276.264 240.377 273.589C248.259 265.375 248.23 253.369 244.721 243.658L244.486 242.897C243.902 241.469 245.292 239.845 247.152 239.841C250.522 239.928 253.082 241.256 256.106 242.297C263.55 245.328 270.879 248.55 277.05 253.395Z" fill="black"/>
<path d="M237.977 290.461C218.935 297.177 156.303 298.853 124.428 284.827C104.303 276.014 91.2404 256.511 84.947 248.998C80.285 243.292 77.9479 237.962 77.9479 237.962C77.9429 235.866 82.3592 236.046 85.4916 233.846C86.7678 232.986 88.5107 232.886 89.4417 233.456C91.0732 235.358 92.5885 237.26 93.8716 239.258C106.934 258.951 127.551 278.721 159.747 281.121C196.824 283.89 212.279 283.567 230.748 280.187C248.52 276.905 252.424 257.361 247.508 242.985C247.392 242.794 247.391 242.509 247.274 242.223C250.411 242.025 256.455 242.487 258.674 247.055C258.79 247.055 267.818 280.003 237.977 290.461Z" fill="white"/>
<path d="M238.678 291.793C231.014 294.384 222.998 295.357 214.981 296.138C206.965 296.92 198.947 297.225 190.929 297.244C170.825 297.102 150.368 295.627 131.412 289.765C109.782 283.433 95.7984 267.363 84.1409 252.145C80.6446 247.96 77.3804 243.68 75.3932 238.825C74.8091 237.588 75.7347 235.871 77.0111 235.105C78.7515 233.958 80.727 233.953 82.4687 233.377C83.6301 233.088 84.326 232.515 85.3707 232.036C87.2284 231.364 89.3188 230.788 91.645 231.64C105.067 255.525 127.085 278.341 161.487 280.259C184.268 281.919 207.514 283.769 230.048 279.427C239.11 278.166 245.02 271.482 247.095 264.425C249.402 257.273 248.686 249.557 246.229 242.511C245.995 241.845 246.574 241.176 247.387 241.174C252.383 240.781 258.547 242.577 260.3 246.86C262.296 255.432 262.318 264.198 259.316 272.495C256.315 280.983 248.663 288.434 238.678 291.793ZM237.277 289.129C246.566 286.057 253.407 279.561 256.526 271.835C259.644 264.014 259.972 255.342 257.977 247.247C256.575 244.106 251.691 242.784 247.509 243.27L248.668 241.934C252.648 254.121 251.877 271.656 237.136 279.028C235.047 279.986 232.724 280.659 230.401 281.046C225.871 281.819 221.224 282.497 216.693 282.984C198.22 284.649 179.624 283.455 161.26 282.26C129.764 281.002 105.428 260.765 91.8949 238.881C90.9611 237.168 89.9113 235.551 88.8613 233.838L89.0942 234.028C87.349 233.175 85.4945 235.18 83.8687 235.661C82.3597 236.331 80.7334 236.621 79.4568 237.291C79.2248 237.482 79.109 237.673 79.1097 237.959L79.109 237.673C81.7963 243.67 86.6901 249.089 90.8865 254.415C101.494 267.73 114.309 281.135 133.148 286.616C159.431 295.129 210.335 297.102 237.277 289.129Z" fill="black"/>
</g>
<path d="M224.382 183.385C224.182 185.085 224.082 186.285 223.782 187.285C222.582 192.585 220.182 189.985 215.782 190.085C210.282 190.185 200.882 195.485 198.882 188.385C198.482 187.085 198.282 185.885 198.182 184.785C197.182 174.785 206.982 178.085 216.782 181.885C220.582 183.485 222.982 183.585 224.382 183.385Z" fill="white"/>
<path d="M223.782 187.985L221.182 187.385C220.782 187.285 220.882 186.785 221.282 186.685L223.982 186.485C224.982 186.485 224.882 188.185 223.782 187.985Z" fill="black"/>
<path d="M227.382 182.085C225.482 185.085 221.182 183.985 218.382 183.185C214.182 181.985 200.882 175.185 198.782 181.385C198.182 183.385 198.582 185.685 198.982 187.785C199.282 189.185 199.882 190.585 201.182 191.285C203.182 192.285 205.382 191.785 207.482 191.185C210.482 190.385 213.182 189.085 216.382 189.085C217.982 189.085 219.582 189.585 220.782 189.585C221.382 189.585 221.582 189.485 221.882 189.185C222.182 188.885 222.482 188.185 222.682 187.585C223.082 186.285 223.382 184.785 223.682 183.385C223.782 182.985 224.082 182.785 224.482 182.885C224.782 182.985 224.982 183.185 224.982 183.485C224.982 184.585 224.882 185.785 224.782 186.885C224.182 191.085 222.582 192.485 218.282 191.485C213.082 190.685 208.382 193.185 202.982 192.685C201.382 192.585 199.582 191.685 198.582 190.185C198.082 189.485 197.782 188.585 197.482 187.985C196.582 185.685 195.582 183.085 196.182 180.485C198.682 172.485 209.582 177.185 214.782 179.385C217.682 180.585 223.882 184.085 226.382 181.385C226.882 181.085 227.582 181.585 227.382 182.085Z" fill="black"/>
<path d="M198.382 183.585C200.782 183.485 205.082 181.985 206.882 184.585C207.182 184.985 207.282 185.085 207.782 185.085C208.482 184.985 209.382 184.485 210.182 184.885C211.482 185.185 212.882 185.485 214.182 185.785C214.482 185.885 214.682 186.085 214.582 186.385C214.482 186.685 214.282 186.885 213.982 186.785C212.482 186.585 210.982 186.585 209.482 186.185C208.782 186.485 207.582 186.985 206.582 186.585C205.982 186.385 205.482 185.785 205.082 185.385C204.882 185.185 204.482 185.185 204.182 185.185C202.282 185.085 200.282 185.885 198.382 186.185C196.382 186.385 196.282 183.285 198.382 183.585Z" fill="black"/>
</svg>
